<svg id="visual" viewBox="0 0 200 150" width="200" height="150" xmlns="http://www.w3.org/2000/svg" xmlns:xlink="http://www.w3.org/1999/xlink" version="1.1"><path d="M0 9L8.3 16.5C16.7 24 33.3 39 50 40.2C66.7 41.3 83.3 28.7 100 26.8C116.7 25 133.3 34 150 40C166.7 46 183.3 49 191.7 50.5L200 52L200 0L191.7 0C183.3 0 166.7 0 150 0C133.3 0 116.7 0 100 0C83.3 0 66.7 0 50 0C33.3 0 16.7 0 8.3 0L0 0Z" fill="#e2860e"></path><path d="M0 49L8.3 57.8C16.7 66.7 33.3 84.3 50 86.2C66.7 88 83.3 74 100 67.7C116.7 61.3 133.3 62.7 150 63.3C166.7 64 183.3 64 191.7 64L200 64L200 50L191.7 48.5C183.3 47 166.7 44 150 38C133.3 32 116.7 23 100 24.8C83.3 26.7 66.7 39.3 50 38.2C33.3 37 16.7 22 8.3 14.5L0 7Z" fill="#e59a3a"></path><path d="M0 100L8.3 102.5C16.7 105 33.3 110 50 112.8C66.7 115.7 83.3 116.3 100 114.2C116.7 112 133.3 107 150 103C166.7 99 183.3 96 191.7 94.5L200 93L200 62L191.7 62C183.3 62 166.7 62 150 61.3C133.3 60.7 116.7 59.3 100 65.7C83.3 72 66.7 86 50 84.2C33.3 82.3 16.7 64.7 8.3 55.8L0 47Z" fill="#e6a54f"></path><path d="M0 132L8.3 131C16.7 130 33.3 128 50 128.2C66.7 128.3 83.3 130.7 100 129.8C116.7 129 133.3 125 150 123.8C166.7 122.7 183.3 124.3 191.7 125.2L200 126L200 91L191.7 92.5C183.3 94 166.7 97 150 101C133.3 105 116.7 110 100 112.2C83.3 114.3 66.7 113.7 50 110.8C33.3 108 16.7 103 8.3 100.5L0 98Z" fill="#e59a3a"></path><path d="M0 151L8.3 151C16.7 151 33.3 151 50 151C66.7 151 83.3 151 100 151C116.7 151 133.3 151 150 151C166.7 151 183.3 151 191.7 151L200 151L200 124L191.7 123.2C183.3 122.3 166.7 120.7 150 121.8C133.3 123 116.7 127 100 127.8C83.3 128.7 66.7 126.3 50 126.2C33.3 126 16.7 128 8.3 129L0 130Z" fill="#e2860e"></path></svg>