<svg id="visual" viewBox="0 0 200 150" width="200" height="150" xmlns="http://www.w3.org/2000/svg" xmlns:xlink="http://www.w3.org/1999/xlink" version="1.1"><path d="M0 55L8.3 55C16.7 55 33.3 55 50 54.3C66.7 53.7 83.3 52.3 100 49.7C116.7 47 133.3 43 150 37.5C166.7 32 183.3 25 191.7 21.5L200 18L200 0L191.7 0C183.3 0 166.7 0 150 0C133.3 0 116.7 0 100 0C83.3 0 66.7 0 50 0C33.3 0 16.7 0 8.3 0L0 0Z" fill="#e6a54f"></path><path d="M0 86L8.3 86.7C16.7 87.3 33.3 88.7 50 86.5C66.7 84.3 83.3 78.7 100 72.7C116.7 66.7 133.3 60.3 150 55.8C166.7 51.3 183.3 48.7 191.7 47.3L200 46L200 16L191.7 19.5C183.3 23 166.7 30 150 35.5C133.3 41 116.7 45 100 47.7C83.3 50.3 66.7 51.7 50 52.3C33.3 53 16.7 53 8.3 53L0 53Z" fill="#e59e41"></path><path d="M0 99L8.3 105.2C16.7 111.3 33.3 123.7 50 124.5C66.7 125.3 83.3 114.7 100 102C116.7 89.3 133.3 74.7 150 67.3C166.7 60 183.3 60 191.7 60L200 60L200 44L191.7 45.3C183.3 46.7 166.7 49.3 150 53.8C133.3 58.3 116.7 64.7 100 70.7C83.3 76.7 66.7 82.3 50 84.5C33.3 86.7 16.7 85.3 8.3 84.7L0 84Z" fill="#e49633"></path><path d="M0 123L8.3 125.7C16.7 128.3 33.3 133.7 50 134.2C66.7 134.7 83.3 130.3 100 119.7C116.7 109 133.3 92 150 84.7C166.7 77.3 183.3 79.7 191.7 80.8L200 82L200 58L191.7 58C183.3 58 166.7 58 150 65.3C133.3 72.7 116.7 87.3 100 100C83.3 112.7 66.7 123.3 50 122.5C33.3 121.7 16.7 109.3 8.3 103.2L0 97Z" fill="#e38e23"></path><path d="M0 151L8.3 151C16.7 151 33.3 151 50 151C66.7 151 83.3 151 100 151C116.7 151 133.3 151 150 151C166.7 151 183.3 151 191.7 151L200 151L200 80L191.7 78.8C183.3 77.7 166.7 75.3 150 82.7C133.3 90 116.7 107 100 117.7C83.3 128.3 66.7 132.7 50 132.2C33.3 131.7 16.7 126.3 8.3 123.7L0 121Z" fill="#e2860e"></path></svg>