<svg id="visual" viewBox="0 0 200 150" width="200" height="150" xmlns="http://www.w3.org/2000/svg" xmlns:xlink="http://www.w3.org/1999/xlink" version="1.1"><path d="M0 18L8.3 21.7C16.7 25.3 33.3 32.7 50 35.3C66.7 38 83.3 36 100 38C116.7 40 133.3 46 150 46C166.7 46 183.3 40 191.7 37L200 34L200 0L191.7 0C183.3 0 166.7 0 150 0C133.3 0 116.7 0 100 0C83.3 0 66.7 0 50 0C33.3 0 16.7 0 8.3 0L0 0Z" fill="#e2860e"></path><path d="M0 52L8.3 53.3C16.7 54.7 33.3 57.3 50 58.7C66.7 60 83.3 60 100 64C116.7 68 133.3 76 150 74.5C166.7 73 183.3 62 191.7 56.5L200 51L200 32L191.7 35C183.3 38 166.7 44 150 44C133.3 44 116.7 38 100 36C83.3 34 66.7 36 50 33.3C33.3 30.7 16.7 23.3 8.3 19.7L0 16Z" fill="#e59a3a"></path><path d="M0 73L8.3 71.8C16.7 70.7 33.3 68.3 50 68.8C66.7 69.3 83.3 72.7 100 77.8C116.7 83 133.3 90 150 89.3C166.7 88.7 183.3 80.3 191.7 76.2L200 72L200 49L191.7 54.5C183.3 60 166.7 71 150 72.5C133.3 74 116.7 66 100 62C83.3 58 66.7 58 50 56.7C33.3 55.3 16.7 52.7 8.3 51.3L0 50Z" fill="#e6a54f"></path><path d="M0 130L8.3 132.8C16.7 135.7 33.3 141.3 50 139.3C66.7 137.3 83.3 127.7 100 122.8C116.7 118 133.3 118 150 123C166.7 128 183.3 138 191.7 143L200 148L200 70L191.7 74.2C183.3 78.3 166.7 86.7 150 87.3C133.3 88 116.7 81 100 75.8C83.3 70.7 66.7 67.3 50 66.8C33.3 66.3 16.7 68.7 8.3 69.8L0 71Z" fill="#e59a3a"></path><path d="M0 151L8.3 151C16.7 151 33.3 151 50 151C66.7 151 83.3 151 100 151C116.7 151 133.3 151 150 151C166.7 151 183.3 151 191.7 151L200 151L200 146L191.7 141C183.3 136 166.7 126 150 121C133.3 116 116.7 116 100 120.8C83.3 125.7 66.7 135.3 50 137.3C33.3 139.3 16.7 133.7 8.3 130.8L0 128Z" fill="#e2860e"></path></svg>