<svg id="visual" viewBox="0 0 200 150" width="200" height="150" xmlns="http://www.w3.org/2000/svg" xmlns:xlink="http://www.w3.org/1999/xlink" version="1.1"><path d="M0 30L8.3 29C16.7 28 33.3 26 50 24.7C66.7 23.3 83.3 22.7 100 22.3C116.7 22 133.3 22 150 21C166.7 20 183.3 18 191.7 17L200 16L200 0L191.7 0C183.3 0 166.7 0 150 0C133.3 0 116.7 0 100 0C83.3 0 66.7 0 50 0C33.3 0 16.7 0 8.3 0L0 0Z" fill="#e6a54f"></path><path d="M0 100L8.3 95.8C16.7 91.7 33.3 83.3 50 75.8C66.7 68.3 83.3 61.7 100 60.7C116.7 59.7 133.3 64.3 150 71.8C166.7 79.3 183.3 89.7 191.7 94.8L200 100L200 14L191.7 15C183.3 16 166.7 18 150 19C133.3 20 116.7 20 100 20.3C83.3 20.7 66.7 21.3 50 22.7C33.3 24 16.7 26 8.3 27L0 28Z" fill="#e59e41"></path><path d="M0 108L8.3 108.2C16.7 108.3 33.3 108.7 50 104.8C66.7 101 83.3 93 100 90C116.7 87 133.3 89 150 94.5C166.7 100 183.3 109 191.7 113.5L200 118L200 98L191.7 92.8C183.3 87.7 166.7 77.3 150 69.8C133.3 62.3 116.7 57.7 100 58.7C83.3 59.7 66.7 66.3 50 73.8C33.3 81.3 16.7 89.7 8.3 93.8L0 98Z" fill="#e49633"></path><path d="M0 141L8.3 140.5C16.7 140 33.3 139 50 136C66.7 133 83.3 128 100 126.7C116.7 125.3 133.3 127.7 150 130.3C166.7 133 183.3 136 191.7 137.5L200 139L200 116L191.7 111.5C183.3 107 166.7 98 150 92.5C133.3 87 116.7 85 100 88C83.3 91 66.7 99 50 102.8C33.3 106.7 16.7 106.3 8.3 106.2L0 106Z" fill="#e38e23"></path><path d="M0 151L8.3 151C16.7 151 33.3 151 50 151C66.7 151 83.3 151 100 151C116.7 151 133.3 151 150 151C166.7 151 183.3 151 191.7 151L200 151L200 137L191.7 135.5C183.3 134 166.7 131 150 128.3C133.3 125.7 116.7 123.3 100 124.7C83.3 126 66.7 131 50 134C33.3 137 16.7 138 8.3 138.5L0 139Z" fill="#e2860e"></path></svg>