<svg id="visual" viewBox="0 0 200 150" width="200" height="150" xmlns="http://www.w3.org/2000/svg" xmlns:xlink="http://www.w3.org/1999/xlink" version="1.1"><path d="M0 55L8.3 47.5C16.7 40 33.3 25 50 22C66.7 19 83.3 28 100 32.3C116.7 36.7 133.3 36.3 150 34.8C166.7 33.3 183.3 30.7 191.7 29.3L200 28L200 0L191.7 0C183.3 0 166.7 0 150 0C133.3 0 116.7 0 100 0C83.3 0 66.7 0 50 0C33.3 0 16.7 0 8.3 0L0 0Z" fill="#e2860e"></path><path d="M0 86L8.3 74.8C16.7 63.7 33.3 41.3 50 40C66.7 38.7 83.3 58.3 100 67.8C116.7 77.3 133.3 76.7 150 72.7C166.7 68.7 183.3 61.3 191.7 57.7L200 54L200 26L191.7 27.3C183.3 28.7 166.7 31.3 150 32.8C133.3 34.3 116.7 34.7 100 30.3C83.3 26 66.7 17 50 20C33.3 23 16.7 38 8.3 45.5L0 53Z" fill="#e59a3a"></path><path d="M0 115L8.3 99.8C16.7 84.7 33.3 54.3 50 52.3C66.7 50.3 83.3 76.7 100 87.3C116.7 98 133.3 93 150 90C166.7 87 183.3 86 191.7 85.5L200 85L200 52L191.7 55.7C183.3 59.3 166.7 66.7 150 70.7C133.3 74.7 116.7 75.3 100 65.8C83.3 56.3 66.7 36.7 50 38C33.3 39.3 16.7 61.7 8.3 72.8L0 84Z" fill="#e6a54f"></path><path d="M0 126L8.3 125C16.7 124 33.3 122 50 122C66.7 122 83.3 124 100 123.2C116.7 122.3 133.3 118.7 150 122.2C166.7 125.7 183.3 136.3 191.7 141.7L200 147L200 83L191.7 83.5C183.3 84 166.7 85 150 88C133.3 91 116.7 96 100 85.3C83.3 74.7 66.7 48.3 50 50.3C33.3 52.3 16.7 82.7 8.3 97.8L0 113Z" fill="#e59a3a"></path><path d="M0 151L8.3 151C16.7 151 33.3 151 50 151C66.7 151 83.3 151 100 151C116.7 151 133.3 151 150 151C166.7 151 183.3 151 191.7 151L200 151L200 145L191.7 139.7C183.3 134.3 166.7 123.7 150 120.2C133.3 116.7 116.7 120.3 100 121.2C83.3 122 66.7 120 50 120C33.3 120 16.7 122 8.3 123L0 124Z" fill="#e2860e"></path></svg>