<svg id="visual" viewBox="0 0 200 150" width="200" height="150" xmlns="http://www.w3.org/2000/svg" xmlns:xlink="http://www.w3.org/1999/xlink" version="1.1"><rect x="0" y="0" width="200" height="150" fill="#e1850f"></rect><g transform="translate(21.687350692500686 144.37697013915692)"><path d="M77.2 -109.8C99.4 -90 116.6 -66.7 128.1 -39.7C139.6 -12.6 145.4 18.3 145.1 55.9C144.9 93.4 138.6 137.7 113.4 158.2C88.2 178.7 44.1 175.3 3.3 170.8C-37.4 166.2 -74.8 160.3 -109.1 142.8C-143.3 125.3 -174.4 96 -184.5 60.9C-194.6 25.8 -183.9 -15.2 -170.3 -54.8C-156.7 -94.4 -140.4 -132.5 -111.5 -150.2C-82.7 -167.8 -41.3 -164.9 -7 -155.3C27.4 -145.8 54.9 -129.5 77.2 -109.8" fill="#e59a3a"></path></g></svg>