<svg id="visual" viewBox="0 0 200 150" width="200" height="150" xmlns="http://www.w3.org/2000/svg" xmlns:xlink="http://www.w3.org/1999/xlink" version="1.1"><rect x="0" y="0" width="200" height="150" fill="#e1850f"></rect><g transform="translate(225.39288422553145 -51.28050514348873)"><path d="M80.1 -77.3C110.4 -69.9 146.3 -51 152.9 -25.2C159.6 0.6 136.9 33.3 120.4 76.7C103.9 120.1 93.5 174.2 67.4 182.5C41.4 190.8 -0.3 153.2 -52.1 137C-103.8 120.8 -165.6 126 -190.9 101.1C-216.2 76.1 -205.1 20.9 -174.3 -9.3C-143.4 -39.6 -92.8 -44.9 -60.5 -51.9C-28.1 -58.9 -14.1 -67.4 5.4 -73.9C24.9 -80.3 49.7 -84.6 80.1 -77.3" fill="#e59a3a"></path></g></svg>