<svg id="visual" viewBox="0 0 900 600" width="900" height="600" xmlns="http://www.w3.org/2000/svg" xmlns:xlink="http://www.w3.org/1999/xlink" version="1.1"><path d="M0 43L7.5 41C15 39 30 35 45 36C60 37 75 43 90 43C105 43 120 37 135 38C150 39 165 47 180 51C195 55 210 55 225 51C240 47 255 39 270 37C285 35 300 39 315 37C330 35 345 27 360 23C375 19 390 19 405 19C420 19 435 19 450 21C465 23 480 27 495 27C510 27 525 23 540 26C555 29 570 39 585 45C600 51 615 53 630 52C645 51 660 47 675 45C690 43 705 43 720 44C735 45 750 47 765 47C780 47 795 45 810 45C825 45 840 47 855 45C870 43 885 37 892.5 34L900 31L900 0L892.5 0C885 0 870 0 855 0C840 0 825 0 810 0C795 0 780 0 765 0C750 0 735 0 720 0C705 0 690 0 675 0C660 0 645 0 630 0C615 0 600 0 585 0C570 0 555 0 540 0C525 0 510 0 495 0C480 0 465 0 450 0C435 0 420 0 405 0C390 0 375 0 360 0C345 0 330 0 315 0C300 0 285 0 270 0C255 0 240 0 225 0C210 0 195 0 180 0C165 0 150 0 135 0C120 0 105 0 90 0C75 0 60 0 45 0C30 0 15 0 7.5 0L0 0Z" fill="#e1850f"></path><path d="M0 103L7.5 101C15 99 30 95 45 94C60 93 75 95 90 93C105 91 120 85 135 85C150 85 165 91 180 94C195 97 210 97 225 97C240 97 255 97 270 92C285 87 300 77 315 75C330 73 345 79 360 78C375 77 390 69 405 66C420 63 435 65 450 69C465 73 480 79 495 82C510 85 525 85 540 86C555 87 570 89 585 87C600 85 615 79 630 82C645 85 660 97 675 101C690 105 705 101 720 100C735 99 750 101 765 95C780 89 795 75 810 76C825 77 840 93 855 95C870 97 885 85 892.5 79L900 73L900 29L892.5 32C885 35 870 41 855 43C840 45 825 43 810 43C795 43 780 45 765 45C750 45 735 43 720 42C705 41 690 41 675 43C660 45 645 49 630 50C615 51 600 49 585 43C570 37 555 27 540 24C525 21 510 25 495 25C480 25 465 21 450 19C435 17 420 17 405 17C390 17 375 17 360 21C345 25 330 33 315 35C300 37 285 33 270 35C255 37 240 45 225 49C210 53 195 53 180 49C165 45 150 37 135 36C120 35 105 41 90 41C75 41 60 35 45 34C30 33 15 37 7.5 39L0 41Z" fill="#e28b20"></path><path d="M0 187L7.5 187C15 187 30 187 45 200C60 213 75 239 90 244C105 249 120 233 135 229C150 225 165 233 180 224C195 215 210 189 225 198C240 207 255 251 270 259C285 267 300 239 315 232C330 225 345 239 360 230C375 221 390 189 405 192C420 195 435 233 450 236C465 239 480 207 495 200C510 193 525 211 540 221C555 231 570 233 585 226C600 219 615 203 630 205C645 207 660 227 675 227C690 227 705 207 720 207C735 207 750 227 765 218C780 209 795 171 810 162C825 153 840 173 855 180C870 187 885 181 892.5 178L900 175L900 71L892.5 77C885 83 870 95 855 93C840 91 825 75 810 74C795 73 780 87 765 93C750 99 735 97 720 98C705 99 690 103 675 99C660 95 645 83 630 80C615 77 600 83 585 85C570 87 555 85 540 84C525 83 510 83 495 80C480 77 465 71 450 67C435 63 420 61 405 64C390 67 375 75 360 76C345 77 330 71 315 73C300 75 285 85 270 90C255 95 240 95 225 95C210 95 195 95 180 92C165 89 150 83 135 83C120 83 105 89 90 91C75 93 60 91 45 92C30 93 15 97 7.5 99L0 101Z" fill="#e4922d"></path><path d="M0 211L7.5 211C15 211 30 211 45 225C60 239 75 267 90 273C105 279 120 263 135 262C150 261 165 275 180 264C195 253 210 217 225 223C240 229 255 277 270 286C285 295 300 265 315 257C330 249 345 263 360 258C375 253 390 229 405 236C420 243 435 281 450 284C465 287 480 255 495 245C510 235 525 247 540 255C555 263 570 267 585 265C600 263 615 255 630 254C645 253 660 259 675 252C690 245 705 225 720 229C735 233 750 261 765 256C780 251 795 213 810 205C825 197 840 219 855 225C870 231 885 221 892.5 216L900 211L900 173L892.5 176C885 179 870 185 855 178C840 171 825 151 810 160C795 169 780 207 765 216C750 225 735 205 720 205C705 205 690 225 675 225C660 225 645 205 630 203C615 201 600 217 585 224C570 231 555 229 540 219C525 209 510 191 495 198C480 205 465 237 450 234C435 231 420 193 405 190C390 187 375 219 360 228C345 237 330 223 315 230C300 237 285 265 270 257C255 249 240 205 225 196C210 187 195 213 180 222C165 231 150 223 135 227C120 231 105 247 90 242C75 237 60 211 45 198C30 185 15 185 7.5 185L0 185Z" fill="#e59839"></path><path d="M0 283L7.5 291C15 299 30 315 45 325C60 335 75 339 90 340C105 341 120 339 135 338C150 337 165 337 180 332C195 327 210 317 225 321C240 325 255 343 270 350C285 357 300 353 315 349C330 345 345 341 360 327C375 313 390 289 405 302C420 315 435 365 450 375C465 385 480 355 495 349C510 343 525 361 540 365C555 369 570 359 585 349C600 339 615 329 630 329C645 329 660 339 675 337C690 335 705 321 720 317C735 313 750 319 765 314C780 309 795 293 810 296C825 299 840 321 855 328C870 335 885 327 892.5 323L900 319L900 209L892.5 214C885 219 870 229 855 223C840 217 825 195 810 203C795 211 780 249 765 254C750 259 735 231 720 227C705 223 690 243 675 250C660 257 645 251 630 252C615 253 600 261 585 263C570 265 555 261 540 253C525 245 510 233 495 243C480 253 465 285 450 282C435 279 420 241 405 234C390 227 375 251 360 256C345 261 330 247 315 255C300 263 285 293 270 284C255 275 240 227 225 221C210 215 195 251 180 262C165 273 150 259 135 260C120 261 105 277 90 271C75 265 60 237 45 223C30 209 15 209 7.5 209L0 209Z" fill="#e5993b"></path><path d="M0 337L7.5 345C15 353 30 369 45 376C60 383 75 381 90 382C105 383 120 387 135 390C150 393 165 395 180 392C195 389 210 381 225 384C240 387 255 401 270 402C285 403 300 391 315 383C330 375 345 371 360 360C375 349 390 331 405 344C420 357 435 401 450 409C465 417 480 389 495 388C510 387 525 413 540 419C555 425 570 411 585 401C600 391 615 385 630 387C645 389 660 399 675 397C690 395 705 381 720 379C735 377 750 387 765 385C780 383 795 369 810 370C825 371 840 387 855 388C870 389 885 375 892.5 368L900 361L900 317L892.5 321C885 325 870 333 855 326C840 319 825 297 810 294C795 291 780 307 765 312C750 317 735 311 720 315C705 319 690 333 675 335C660 337 645 327 630 327C615 327 600 337 585 347C570 357 555 367 540 363C525 359 510 341 495 347C480 353 465 383 450 373C435 363 420 313 405 300C390 287 375 311 360 325C345 339 330 343 315 347C300 351 285 355 270 348C255 341 240 323 225 319C210 315 195 325 180 330C165 335 150 335 135 336C120 337 105 339 90 338C75 337 60 333 45 323C30 313 15 297 7.5 289L0 281Z" fill="#e59839"></path><path d="M0 385L7.5 389C15 393 30 401 45 407C60 413 75 417 90 422C105 427 120 433 135 434C150 435 165 431 180 424C195 417 210 407 225 412C240 417 255 437 270 441C285 445 300 433 315 423C330 413 345 405 360 394C375 383 390 369 405 383C420 397 435 439 450 444C465 449 480 417 495 414C510 411 525 437 540 446C555 455 570 447 585 436C600 425 615 411 630 414C645 417 660 437 675 437C690 437 705 417 720 411C735 405 750 413 765 413C780 413 795 405 810 407C825 409 840 421 855 421C870 421 885 409 892.5 403L900 397L900 359L892.5 366C885 373 870 387 855 386C840 385 825 369 810 368C795 367 780 381 765 383C750 385 735 375 720 377C705 379 690 393 675 395C660 397 645 387 630 385C615 383 600 389 585 399C570 409 555 423 540 417C525 411 510 385 495 386C480 387 465 415 450 407C435 399 420 355 405 342C390 329 375 347 360 358C345 369 330 373 315 381C300 389 285 401 270 400C255 399 240 385 225 382C210 379 195 387 180 390C165 393 150 391 135 388C120 385 105 381 90 380C75 379 60 381 45 374C30 367 15 351 7.5 343L0 335Z" fill="#e4922d"></path><path d="M0 529L7.5 531C15 533 30 537 45 539C60 541 75 541 90 542C105 543 120 545 135 546C150 547 165 547 180 549C195 551 210 555 225 553C240 551 255 543 270 536C285 529 300 523 315 523C330 523 345 529 360 532C375 535 390 535 405 540C420 545 435 555 450 552C465 549 480 533 495 532C510 531 525 545 540 547C555 549 570 539 585 534C600 529 615 529 630 530C645 531 660 533 675 534C690 535 705 535 720 533C735 531 750 527 765 528C780 529 795 535 810 538C825 541 840 541 855 540C870 539 885 537 892.5 536L900 535L900 395L892.5 401C885 407 870 419 855 419C840 419 825 407 810 405C795 403 780 411 765 411C750 411 735 403 720 409C705 415 690 435 675 435C660 435 645 415 630 412C615 409 600 423 585 434C570 445 555 453 540 444C525 435 510 409 495 412C480 415 465 447 450 442C435 437 420 395 405 381C390 367 375 381 360 392C345 403 330 411 315 421C300 431 285 443 270 439C255 435 240 415 225 410C210 405 195 415 180 422C165 429 150 433 135 432C120 431 105 425 90 420C75 415 60 411 45 405C30 399 15 391 7.5 387L0 383Z" fill="#e28b20"></path><path d="M0 601L7.5 601C15 601 30 601 45 601C60 601 75 601 90 601C105 601 120 601 135 601C150 601 165 601 180 601C195 601 210 601 225 601C240 601 255 601 270 601C285 601 300 601 315 601C330 601 345 601 360 601C375 601 390 601 405 601C420 601 435 601 450 601C465 601 480 601 495 601C510 601 525 601 540 601C555 601 570 601 585 601C600 601 615 601 630 601C645 601 660 601 675 601C690 601 705 601 720 601C735 601 750 601 765 601C780 601 795 601 810 601C825 601 840 601 855 601C870 601 885 601 892.5 601L900 601L900 533L892.5 534C885 535 870 537 855 538C840 539 825 539 810 536C795 533 780 527 765 526C750 525 735 529 720 531C705 533 690 533 675 532C660 531 645 529 630 528C615 527 600 527 585 532C570 537 555 547 540 545C525 543 510 529 495 530C480 531 465 547 450 550C435 553 420 543 405 538C390 533 375 533 360 530C345 527 330 521 315 521C300 521 285 527 270 534C255 541 240 549 225 551C210 553 195 549 180 547C165 545 150 545 135 544C120 543 105 541 90 540C75 539 60 539 45 537C30 535 15 531 7.5 529L0 527Z" fill="#e1850f"></path></svg>