<svg id="visual" viewBox="0 0 900 600" width="900" height="600" xmlns="http://www.w3.org/2000/svg" xmlns:xlink="http://www.w3.org/1999/xlink" version="1.1"><path d="M0 13L7.8 12C15.7 11 31.3 9 47.2 8C63 7 79 7 94.8 18C110.7 29 126.3 51 142 62C157.7 73 173.3 73 189.2 63C205 53 221 33 236.8 35C252.7 37 268.3 61 284.2 65C300 69 316 53 331.8 50C347.7 47 363.3 57 379 60C394.7 63 410.3 59 426.2 57C442 55 458 55 473.8 52C489.7 49 505.3 43 521 37C536.7 31 552.3 25 568.2 30C584 35 600 51 615.8 54C631.7 57 647.3 47 663.2 44C679 41 695 45 710.8 40C726.7 35 742.3 21 758 26C773.7 31 789.3 55 805.2 64C821 73 837 67 852.8 57C868.7 47 884.3 33 892.2 26L900 19L900 0L892.2 0C884.3 0 868.7 0 852.8 0C837 0 821 0 805.2 0C789.3 0 773.7 0 758 0C742.3 0 726.7 0 710.8 0C695 0 679 0 663.2 0C647.3 0 631.7 0 615.8 0C600 0 584 0 568.2 0C552.3 0 536.7 0 521 0C505.3 0 489.7 0 473.8 0C458 0 442 0 426.2 0C410.3 0 394.7 0 379 0C363.3 0 347.7 0 331.8 0C316 0 300 0 284.2 0C268.3 0 252.7 0 236.8 0C221 0 205 0 189.2 0C173.3 0 157.7 0 142 0C126.3 0 110.7 0 94.8 0C79 0 63 0 47.2 0C31.3 0 15.7 0 7.8 0L0 0Z" fill="#e1850f"></path><path d="M0 61L7.8 61C15.7 61 31.3 61 47.2 55C63 49 79 37 94.8 44C110.7 51 126.3 77 142 88C157.7 99 173.3 95 189.2 85C205 75 221 59 236.8 59C252.7 59 268.3 75 284.2 80C300 85 316 79 331.8 85C347.7 91 363.3 109 379 108C394.7 107 410.3 87 426.2 80C442 73 458 79 473.8 77C489.7 75 505.3 65 521 58C536.7 51 552.3 47 568.2 50C584 53 600 63 615.8 63C631.7 63 647.3 53 663.2 59C679 65 695 87 710.8 82C726.7 77 742.3 45 758 51C773.7 57 789.3 101 805.2 119C821 137 837 129 852.8 109C868.7 89 884.3 57 892.2 41L900 25L900 17L892.2 24C884.3 31 868.7 45 852.8 55C837 65 821 71 805.2 62C789.3 53 773.7 29 758 24C742.3 19 726.7 33 710.8 38C695 43 679 39 663.2 42C647.3 45 631.7 55 615.8 52C600 49 584 33 568.2 28C552.3 23 536.7 29 521 35C505.3 41 489.7 47 473.8 50C458 53 442 53 426.2 55C410.3 57 394.7 61 379 58C363.3 55 347.7 45 331.8 48C316 51 300 67 284.2 63C268.3 59 252.7 35 236.8 33C221 31 205 51 189.2 61C173.3 71 157.7 71 142 60C126.3 49 110.7 27 94.8 16C79 5 63 5 47.2 6C31.3 7 15.7 9 7.8 10L0 11Z" fill="#e28b20"></path><path d="M0 79L7.8 83C15.7 87 31.3 95 47.2 88C63 81 79 59 94.8 61C110.7 63 126.3 89 142 119C157.7 149 173.3 183 189.2 188C205 193 221 169 236.8 163C252.7 157 268.3 169 284.2 180C300 191 316 201 331.8 199C347.7 197 363.3 183 379 180C394.7 177 410.3 185 426.2 196C442 207 458 221 473.8 212C489.7 203 505.3 171 521 158C536.7 145 552.3 151 568.2 154C584 157 600 157 615.8 141C631.7 125 647.3 93 663.2 93C679 93 695 125 710.8 130C726.7 135 742.3 113 758 120C773.7 127 789.3 163 805.2 187C821 211 837 223 852.8 202C868.7 181 884.3 127 892.2 100L900 73L900 23L892.2 39C884.3 55 868.7 87 852.8 107C837 127 821 135 805.2 117C789.3 99 773.7 55 758 49C742.3 43 726.7 75 710.8 80C695 85 679 63 663.2 57C647.3 51 631.7 61 615.8 61C600 61 584 51 568.2 48C552.3 45 536.7 49 521 56C505.3 63 489.7 73 473.8 75C458 77 442 71 426.2 78C410.3 85 394.7 105 379 106C363.3 107 347.7 89 331.8 83C316 77 300 83 284.2 78C268.3 73 252.7 57 236.8 57C221 57 205 73 189.2 83C173.3 93 157.7 97 142 86C126.3 75 110.7 49 94.8 42C79 35 63 47 47.2 53C31.3 59 15.7 59 7.8 59L0 59Z" fill="#e4922d"></path><path d="M0 109L7.8 111C15.7 113 31.3 117 47.2 115C63 113 79 105 94.8 106C110.7 107 126.3 117 142 142C157.7 167 173.3 207 189.2 218C205 229 221 211 236.8 204C252.7 197 268.3 201 284.2 209C300 217 316 229 331.8 232C347.7 235 363.3 229 379 226C394.7 223 410.3 223 426.2 236C442 249 458 275 473.8 270C489.7 265 505.3 229 521 212C536.7 195 552.3 197 568.2 203C584 209 600 219 615.8 203C631.7 187 647.3 145 663.2 140C679 135 695 167 710.8 178C726.7 189 742.3 179 758 181C773.7 183 789.3 197 805.2 215C821 233 837 255 852.8 243C868.7 231 884.3 185 892.2 162L900 139L900 71L892.2 98C884.3 125 868.7 179 852.8 200C837 221 821 209 805.2 185C789.3 161 773.7 125 758 118C742.3 111 726.7 133 710.8 128C695 123 679 91 663.2 91C647.3 91 631.7 123 615.8 139C600 155 584 155 568.2 152C552.3 149 536.7 143 521 156C505.3 169 489.7 201 473.8 210C458 219 442 205 426.2 194C410.3 183 394.7 175 379 178C363.3 181 347.7 195 331.8 197C316 199 300 189 284.2 178C268.3 167 252.7 155 236.8 161C221 167 205 191 189.2 186C173.3 181 157.7 147 142 117C126.3 87 110.7 61 94.8 59C79 57 63 79 47.2 86C31.3 93 15.7 85 7.8 81L0 77Z" fill="#e59839"></path><path d="M0 127L7.8 135C15.7 143 31.3 159 47.2 160C63 161 79 147 94.8 154C110.7 161 126.3 189 142 209C157.7 229 173.3 241 189.2 249C205 257 221 261 236.8 269C252.7 277 268.3 289 284.2 291C300 293 316 285 331.8 276C347.7 267 363.3 257 379 262C394.7 267 410.3 287 426.2 306C442 325 458 343 473.8 333C489.7 323 505.3 285 521 266C536.7 247 552.3 247 568.2 253C584 259 600 271 615.8 261C631.7 251 647.3 219 663.2 210C679 201 695 215 710.8 227C726.7 239 742.3 249 758 261C773.7 273 789.3 287 805.2 295C821 303 837 305 852.8 294C868.7 283 884.3 259 892.2 247L900 235L900 137L892.2 160C884.3 183 868.7 229 852.8 241C837 253 821 231 805.2 213C789.3 195 773.7 181 758 179C742.3 177 726.7 187 710.8 176C695 165 679 133 663.2 138C647.3 143 631.7 185 615.8 201C600 217 584 207 568.2 201C552.3 195 536.7 193 521 210C505.3 227 489.7 263 473.8 268C458 273 442 247 426.2 234C410.3 221 394.7 221 379 224C363.3 227 347.7 233 331.8 230C316 227 300 215 284.2 207C268.3 199 252.7 195 236.8 202C221 209 205 227 189.2 216C173.3 205 157.7 165 142 140C126.3 115 110.7 105 94.8 104C79 103 63 111 47.2 113C31.3 115 15.7 111 7.8 109L0 107Z" fill="#e5993b"></path><path d="M0 151L7.8 172C15.7 193 31.3 235 47.2 251C63 267 79 257 94.8 262C110.7 267 126.3 287 142 299C157.7 311 173.3 315 189.2 312C205 309 221 299 236.8 310C252.7 321 268.3 353 284.2 364C300 375 316 365 331.8 357C347.7 349 363.3 343 379 349C394.7 355 410.3 373 426.2 383C442 393 458 395 473.8 382C489.7 369 505.3 341 521 320C536.7 299 552.3 285 568.2 288C584 291 600 311 615.8 307C631.7 303 647.3 275 663.2 271C679 267 695 287 710.8 291C726.7 295 742.3 283 758 296C773.7 309 789.3 347 805.2 357C821 367 837 349 852.8 331C868.7 313 884.3 295 892.2 286L900 277L900 233L892.2 245C884.3 257 868.7 281 852.8 292C837 303 821 301 805.2 293C789.3 285 773.7 271 758 259C742.3 247 726.7 237 710.8 225C695 213 679 199 663.2 208C647.3 217 631.7 249 615.8 259C600 269 584 257 568.2 251C552.3 245 536.7 245 521 264C505.3 283 489.7 321 473.8 331C458 341 442 323 426.2 304C410.3 285 394.7 265 379 260C363.3 255 347.7 265 331.8 274C316 283 300 291 284.2 289C268.3 287 252.7 275 236.8 267C221 259 205 255 189.2 247C173.3 239 157.7 227 142 207C126.3 187 110.7 159 94.8 152C79 145 63 159 47.2 158C31.3 157 15.7 141 7.8 133L0 125Z" fill="#e59839"></path><path d="M0 199L7.8 226C15.7 253 31.3 307 47.2 345C63 383 79 405 94.8 405C110.7 405 126.3 383 142 391C157.7 399 173.3 437 189.2 455C205 473 221 471 236.8 483C252.7 495 268.3 521 284.2 534C300 547 316 547 331.8 542C347.7 537 363.3 527 379 522C394.7 517 410.3 517 426.2 507C442 497 458 477 473.8 462C489.7 447 505.3 437 521 444C536.7 451 552.3 475 568.2 478C584 481 600 463 615.8 429C631.7 395 647.3 345 663.2 359C679 373 695 451 710.8 487C726.7 523 742.3 517 758 498C773.7 479 789.3 447 805.2 426C821 405 837 395 852.8 393C868.7 391 884.3 397 892.2 400L900 403L900 275L892.2 284C884.3 293 868.7 311 852.8 329C837 347 821 365 805.2 355C789.3 345 773.7 307 758 294C742.3 281 726.7 293 710.8 289C695 285 679 265 663.2 269C647.3 273 631.7 301 615.8 305C600 309 584 289 568.2 286C552.3 283 536.7 297 521 318C505.3 339 489.7 367 473.8 380C458 393 442 391 426.2 381C410.3 371 394.7 353 379 347C363.3 341 347.7 347 331.8 355C316 363 300 373 284.2 362C268.3 351 252.7 319 236.8 308C221 297 205 307 189.2 310C173.3 313 157.7 309 142 297C126.3 285 110.7 265 94.8 260C79 255 63 265 47.2 249C31.3 233 15.7 191 7.8 170L0 149Z" fill="#e4922d"></path><path d="M0 547L7.8 547C15.7 547 31.3 547 47.2 548C63 549 79 551 94.8 555C110.7 559 126.3 565 142 570C157.7 575 173.3 579 189.2 576C205 573 221 563 236.8 562C252.7 561 268.3 569 284.2 573C300 577 316 577 331.8 571C347.7 565 363.3 553 379 553C394.7 553 410.3 565 426.2 574C442 583 458 589 473.8 585C489.7 581 505.3 567 521 561C536.7 555 552.3 557 568.2 556C584 555 600 551 615.8 555C631.7 559 647.3 571 663.2 575C679 579 695 575 710.8 573C726.7 571 742.3 571 758 575C773.7 579 789.3 587 805.2 588C821 589 837 583 852.8 582C868.7 581 884.3 585 892.2 587L900 589L900 401L892.2 398C884.3 395 868.7 389 852.8 391C837 393 821 403 805.2 424C789.3 445 773.7 477 758 496C742.3 515 726.7 521 710.8 485C695 449 679 371 663.2 357C647.3 343 631.7 393 615.8 427C600 461 584 479 568.2 476C552.3 473 536.7 449 521 442C505.3 435 489.7 445 473.8 460C458 475 442 495 426.2 505C410.3 515 394.7 515 379 520C363.3 525 347.7 535 331.8 540C316 545 300 545 284.2 532C268.3 519 252.7 493 236.8 481C221 469 205 471 189.2 453C173.3 435 157.7 397 142 389C126.3 381 110.7 403 94.8 403C79 403 63 381 47.2 343C31.3 305 15.7 251 7.8 224L0 197Z" fill="#e28b20"></path><path d="M0 601L7.8 601C15.7 601 31.3 601 47.2 601C63 601 79 601 94.8 601C110.7 601 126.3 601 142 601C157.7 601 173.3 601 189.2 601C205 601 221 601 236.8 601C252.7 601 268.3 601 284.2 601C300 601 316 601 331.8 601C347.7 601 363.3 601 379 601C394.7 601 410.3 601 426.2 601C442 601 458 601 473.8 601C489.7 601 505.3 601 521 601C536.7 601 552.3 601 568.2 601C584 601 600 601 615.8 601C631.7 601 647.3 601 663.2 601C679 601 695 601 710.8 601C726.7 601 742.3 601 758 601C773.7 601 789.3 601 805.2 601C821 601 837 601 852.8 601C868.7 601 884.3 601 892.2 601L900 601L900 587L892.2 585C884.3 583 868.7 579 852.8 580C837 581 821 587 805.2 586C789.3 585 773.7 577 758 573C742.3 569 726.7 569 710.8 571C695 573 679 577 663.2 573C647.3 569 631.7 557 615.8 553C600 549 584 553 568.2 554C552.3 555 536.7 553 521 559C505.3 565 489.7 579 473.8 583C458 587 442 581 426.2 572C410.3 563 394.7 551 379 551C363.3 551 347.7 563 331.8 569C316 575 300 575 284.2 571C268.3 567 252.7 559 236.8 560C221 561 205 571 189.2 574C173.3 577 157.7 573 142 568C126.3 563 110.7 557 94.8 553C79 549 63 547 47.2 546C31.3 545 15.7 545 7.8 545L0 545Z" fill="#e1850f"></path></svg>