<svg id="visual" viewBox="0 0 900 600" width="900" height="600" xmlns="http://www.w3.org/2000/svg" xmlns:xlink="http://www.w3.org/1999/xlink" version="1.1"><path d="M0 73L25 70C50 67 100 61 150 56C200 51 250 47 300 46C350 45 400 47 450 49C500 51 550 53 600 51C650 49 700 43 750 45C800 47 850 57 875 62L900 67L900 0L875 0C850 0 800 0 750 0C700 0 650 0 600 0C550 0 500 0 450 0C400 0 350 0 300 0C250 0 200 0 150 0C100 0 50 0 25 0L0 0Z" fill="#e1850f"></path><path d="M0 169L25 163C50 157 100 145 150 128C200 111 250 89 300 82C350 75 400 83 450 94C500 105 550 119 600 133C650 147 700 161 750 159C800 157 850 139 875 130L900 121L900 65L875 60C850 55 800 45 750 43C700 41 650 47 600 49C550 51 500 49 450 47C400 45 350 43 300 44C250 45 200 49 150 54C100 59 50 65 25 68L0 71Z" fill="#e28c22"></path><path d="M0 223L25 217C50 211 100 199 150 179C200 159 250 131 300 121C350 111 400 119 450 134C500 149 550 171 600 189C650 207 700 221 750 213C800 205 850 175 875 160L900 145L900 119L875 128C850 137 800 155 750 157C700 159 650 145 600 131C550 117 500 103 450 92C400 81 350 73 300 80C250 87 200 109 150 126C100 143 50 155 25 161L0 167Z" fill="#e49330"></path><path d="M0 241L25 240C50 239 100 237 150 220C200 203 250 171 300 156C350 141 400 143 450 161C500 179 550 213 600 235C650 257 700 267 750 259C800 251 850 225 875 212L900 199L900 143L875 158C850 173 800 203 750 211C700 219 650 205 600 187C550 169 500 147 450 132C400 117 350 109 300 119C250 129 200 157 150 177C100 197 50 209 25 215L0 221Z" fill="#e5993b"></path><path d="M0 307L25 298C50 289 100 271 150 255C200 239 250 225 300 211C350 197 400 183 450 195C500 207 550 245 600 268C650 291 700 299 750 298C800 297 850 287 875 282L900 277L900 197L875 210C850 223 800 249 750 257C700 265 650 255 600 233C550 211 500 177 450 159C400 141 350 139 300 154C250 169 200 201 150 218C100 235 50 237 25 238L0 239Z" fill="#e5993b"></path><path d="M0 391L25 377C50 363 100 335 150 309C200 283 250 259 300 253C350 247 400 259 450 280C500 301 550 331 600 344C650 357 700 353 750 348C800 343 850 337 875 334L900 331L900 275L875 280C850 285 800 295 750 296C700 297 650 289 600 266C550 243 500 205 450 193C400 181 350 195 300 209C250 223 200 237 150 253C100 269 50 287 25 296L0 305Z" fill="#e49330"></path><path d="M0 469L25 475C50 481 100 493 150 471C200 449 250 393 300 382C350 371 400 405 450 420C500 435 550 431 600 445C650 459 700 491 750 501C800 511 850 499 875 493L900 487L900 329L875 332C850 335 800 341 750 346C700 351 650 355 600 342C550 329 500 299 450 278C400 257 350 245 300 251C250 257 200 281 150 307C100 333 50 361 25 375L0 389Z" fill="#e28c22"></path><path d="M0 601L25 601C50 601 100 601 150 601C200 601 250 601 300 601C350 601 400 601 450 601C500 601 550 601 600 601C650 601 700 601 750 601C800 601 850 601 875 601L900 601L900 485L875 491C850 497 800 509 750 499C700 489 650 457 600 443C550 429 500 433 450 418C400 403 350 369 300 380C250 391 200 447 150 469C100 491 50 479 25 473L0 467Z" fill="#e1850f"></path></svg>