<svg id="visual" viewBox="0 0 900 600" width="900" height="600" xmlns="http://www.w3.org/2000/svg" xmlns:xlink="http://www.w3.org/1999/xlink" version="1.1"><path d="M0 31L9.3 29C18.7 27 37.3 23 56.2 26C75 29 94 39 112.8 42C131.7 45 150.3 41 169 36C187.7 31 206.3 25 225 23C243.7 21 262.3 23 281.2 29C300 35 319 45 337.8 49C356.7 53 375.3 51 394 51C412.7 51 431.3 53 450 51C468.7 49 487.3 43 506.2 38C525 33 544 29 562.8 30C581.7 31 600.3 37 619 45C637.7 53 656.3 63 675 60C693.7 57 712.3 41 731.2 33C750 25 769 25 787.8 28C806.7 31 825.3 37 844 37C862.7 37 881.3 31 890.7 28L900 25L900 0L890.7 0C881.3 0 862.7 0 844 0C825.3 0 806.7 0 787.8 0C769 0 750 0 731.2 0C712.3 0 693.7 0 675 0C656.3 0 637.7 0 619 0C600.3 0 581.7 0 562.8 0C544 0 525 0 506.2 0C487.3 0 468.7 0 450 0C431.3 0 412.7 0 394 0C375.3 0 356.7 0 337.8 0C319 0 300 0 281.2 0C262.3 0 243.7 0 225 0C206.3 0 187.7 0 169 0C150.3 0 131.7 0 112.8 0C94 0 75 0 56.2 0C37.3 0 18.7 0 9.3 0L0 0Z" fill="#e1850f"></path><path d="M0 55L9.3 54C18.7 53 37.3 51 56.2 58C75 65 94 81 112.8 81C131.7 81 150.3 65 169 61C187.7 57 206.3 65 225 66C243.7 67 262.3 61 281.2 62C300 63 319 71 337.8 78C356.7 85 375.3 91 394 91C412.7 91 431.3 85 450 85C468.7 85 487.3 91 506.2 93C525 95 544 93 562.8 95C581.7 97 600.3 103 619 104C637.7 105 656.3 101 675 94C693.7 87 712.3 77 731.2 72C750 67 769 67 787.8 72C806.7 77 825.3 87 844 84C862.7 81 881.3 65 890.7 57L900 49L900 23L890.7 26C881.3 29 862.7 35 844 35C825.3 35 806.7 29 787.8 26C769 23 750 23 731.2 31C712.3 39 693.7 55 675 58C656.3 61 637.7 51 619 43C600.3 35 581.7 29 562.8 28C544 27 525 31 506.2 36C487.3 41 468.7 47 450 49C431.3 51 412.7 49 394 49C375.3 49 356.7 51 337.8 47C319 43 300 33 281.2 27C262.3 21 243.7 19 225 21C206.3 23 187.7 29 169 34C150.3 39 131.7 43 112.8 40C94 37 75 27 56.2 24C37.3 21 18.7 25 9.3 27L0 29Z" fill="#e28b1e"></path><path d="M0 79L9.3 85C18.7 91 37.3 103 56.2 108C75 113 94 111 112.8 105C131.7 99 150.3 89 169 87C187.7 85 206.3 91 225 101C243.7 111 262.3 125 281.2 135C300 145 319 151 337.8 157C356.7 163 375.3 169 394 166C412.7 163 431.3 151 450 150C468.7 149 487.3 159 506.2 154C525 149 544 129 562.8 122C581.7 115 600.3 121 619 129C637.7 137 656.3 147 675 145C693.7 143 712.3 129 731.2 128C750 127 769 139 787.8 142C806.7 145 825.3 139 844 127C862.7 115 881.3 97 890.7 88L900 79L900 47L890.7 55C881.3 63 862.7 79 844 82C825.3 85 806.7 75 787.8 70C769 65 750 65 731.2 70C712.3 75 693.7 85 675 92C656.3 99 637.7 103 619 102C600.3 101 581.7 95 562.8 93C544 91 525 93 506.2 91C487.3 89 468.7 83 450 83C431.3 83 412.7 89 394 89C375.3 89 356.7 83 337.8 76C319 69 300 61 281.2 60C262.3 59 243.7 65 225 64C206.3 63 187.7 55 169 59C150.3 63 131.7 79 112.8 79C94 79 75 63 56.2 56C37.3 49 18.7 51 9.3 52L0 53Z" fill="#e3902a"></path><path d="M0 109L9.3 116C18.7 123 37.3 137 56.2 145C75 153 94 155 112.8 145C131.7 135 150.3 113 169 104C187.7 95 206.3 99 225 113C243.7 127 262.3 151 281.2 163C300 175 319 175 337.8 180C356.7 185 375.3 195 394 194C412.7 193 431.3 181 450 179C468.7 177 487.3 185 506.2 176C525 167 544 141 562.8 136C581.7 131 600.3 147 619 156C637.7 165 656.3 167 675 162C693.7 157 712.3 145 731.2 146C750 147 769 161 787.8 167C806.7 173 825.3 171 844 159C862.7 147 881.3 125 890.7 114L900 103L900 77L890.7 86C881.3 95 862.7 113 844 125C825.3 137 806.7 143 787.8 140C769 137 750 125 731.2 126C712.3 127 693.7 141 675 143C656.3 145 637.7 135 619 127C600.3 119 581.7 113 562.8 120C544 127 525 147 506.2 152C487.3 157 468.7 147 450 148C431.3 149 412.7 161 394 164C375.3 167 356.7 161 337.8 155C319 149 300 143 281.2 133C262.3 123 243.7 109 225 99C206.3 89 187.7 83 169 85C150.3 87 131.7 97 112.8 103C94 109 75 111 56.2 106C37.3 101 18.7 89 9.3 83L0 77Z" fill="#e49635"></path><path d="M0 133L9.3 153C18.7 173 37.3 213 56.2 227C75 241 94 229 112.8 208C131.7 187 150.3 157 169 142C187.7 127 206.3 127 225 152C243.7 177 262.3 227 281.2 238C300 249 319 221 337.8 220C356.7 219 375.3 245 394 251C412.7 257 431.3 243 450 236C468.7 229 487.3 229 506.2 227C525 225 544 221 562.8 216C581.7 211 600.3 205 619 205C637.7 205 656.3 211 675 207C693.7 203 712.3 189 731.2 197C750 205 769 235 787.8 239C806.7 243 825.3 221 844 198C862.7 175 881.3 151 890.7 139L900 127L900 101L890.7 112C881.3 123 862.7 145 844 157C825.3 169 806.7 171 787.8 165C769 159 750 145 731.2 144C712.3 143 693.7 155 675 160C656.3 165 637.7 163 619 154C600.3 145 581.7 129 562.8 134C544 139 525 165 506.2 174C487.3 183 468.7 175 450 177C431.3 179 412.7 191 394 192C375.3 193 356.7 183 337.8 178C319 173 300 173 281.2 161C262.3 149 243.7 125 225 111C206.3 97 187.7 93 169 102C150.3 111 131.7 133 112.8 143C94 153 75 151 56.2 143C37.3 135 18.7 121 9.3 114L0 107Z" fill="#e5993b"></path><path d="M0 181L9.3 194C18.7 207 37.3 233 56.2 244C75 255 94 251 112.8 232C131.7 213 150.3 179 169 169C187.7 159 206.3 173 225 201C243.7 229 262.3 271 281.2 277C300 283 319 253 337.8 255C356.7 257 375.3 291 394 298C412.7 305 431.3 285 450 278C468.7 271 487.3 277 506.2 272C525 267 544 251 562.8 243C581.7 235 600.3 235 619 233C637.7 231 656.3 227 675 220C693.7 213 712.3 203 731.2 211C750 219 769 245 787.8 251C806.7 257 825.3 243 844 228C862.7 213 881.3 197 890.7 189L900 181L900 125L890.7 137C881.3 149 862.7 173 844 196C825.3 219 806.7 241 787.8 237C769 233 750 203 731.2 195C712.3 187 693.7 201 675 205C656.3 209 637.7 203 619 203C600.3 203 581.7 209 562.8 214C544 219 525 223 506.2 225C487.3 227 468.7 227 450 234C431.3 241 412.7 255 394 249C375.3 243 356.7 217 337.8 218C319 219 300 247 281.2 236C262.3 225 243.7 175 225 150C206.3 125 187.7 125 169 140C150.3 155 131.7 185 112.8 206C94 227 75 239 56.2 225C37.3 211 18.7 171 9.3 151L0 131Z" fill="#e5993b"></path><path d="M0 367L9.3 386C18.7 405 37.3 443 56.2 432C75 421 94 361 112.8 336C131.7 311 150.3 321 169 334C187.7 347 206.3 363 225 386C243.7 409 262.3 439 281.2 441C300 443 319 417 337.8 404C356.7 391 375.3 391 394 408C412.7 425 431.3 459 450 451C468.7 443 487.3 393 506.2 360C525 327 544 311 562.8 329C581.7 347 600.3 399 619 397C637.7 395 656.3 339 675 320C693.7 301 712.3 319 731.2 341C750 363 769 389 787.8 397C806.7 405 825.3 395 844 365C862.7 335 881.3 285 890.7 260L900 235L900 179L890.7 187C881.3 195 862.7 211 844 226C825.3 241 806.7 255 787.8 249C769 243 750 217 731.2 209C712.3 201 693.7 211 675 218C656.3 225 637.7 229 619 231C600.3 233 581.7 233 562.8 241C544 249 525 265 506.2 270C487.3 275 468.7 269 450 276C431.3 283 412.7 303 394 296C375.3 289 356.7 255 337.8 253C319 251 300 281 281.2 275C262.3 269 243.7 227 225 199C206.3 171 187.7 157 169 167C150.3 177 131.7 211 112.8 230C94 249 75 253 56.2 242C37.3 231 18.7 205 9.3 192L0 179Z" fill="#e49635"></path><path d="M0 433L9.3 451C18.7 469 37.3 505 56.2 505C75 505 94 469 112.8 469C131.7 469 150.3 505 169 507C187.7 509 206.3 477 225 477C243.7 477 262.3 509 281.2 509C300 509 319 477 337.8 476C356.7 475 375.3 505 394 525C412.7 545 431.3 555 450 545C468.7 535 487.3 505 506.2 486C525 467 544 459 562.8 463C581.7 467 600.3 483 619 486C637.7 489 656.3 479 675 470C693.7 461 712.3 453 731.2 465C750 477 769 509 787.8 519C806.7 529 825.3 517 844 504C862.7 491 881.3 477 890.7 470L900 463L900 233L890.7 258C881.3 283 862.7 333 844 363C825.3 393 806.7 403 787.8 395C769 387 750 361 731.2 339C712.3 317 693.7 299 675 318C656.3 337 637.7 393 619 395C600.3 397 581.7 345 562.8 327C544 309 525 325 506.2 358C487.3 391 468.7 441 450 449C431.3 457 412.7 423 394 406C375.3 389 356.7 389 337.8 402C319 415 300 441 281.2 439C262.3 437 243.7 407 225 384C206.3 361 187.7 345 169 332C150.3 319 131.7 309 112.8 334C94 359 75 419 56.2 430C37.3 441 18.7 403 9.3 384L0 365Z" fill="#e3902a"></path><path d="M0 565L9.3 570C18.7 575 37.3 585 56.2 584C75 583 94 571 112.8 569C131.7 567 150.3 575 169 577C187.7 579 206.3 575 225 577C243.7 579 262.3 587 281.2 584C300 581 319 567 337.8 567C356.7 567 375.3 581 394 586C412.7 591 431.3 587 450 585C468.7 583 487.3 583 506.2 577C525 571 544 559 562.8 554C581.7 549 600.3 551 619 555C637.7 559 656.3 565 675 568C693.7 571 712.3 571 731.2 573C750 575 769 579 787.8 580C806.7 581 825.3 579 844 577C862.7 575 881.3 573 890.7 572L900 571L900 461L890.7 468C881.3 475 862.7 489 844 502C825.3 515 806.7 527 787.8 517C769 507 750 475 731.2 463C712.3 451 693.7 459 675 468C656.3 477 637.7 487 619 484C600.3 481 581.7 465 562.8 461C544 457 525 465 506.2 484C487.3 503 468.7 533 450 543C431.3 553 412.7 543 394 523C375.3 503 356.7 473 337.8 474C319 475 300 507 281.2 507C262.3 507 243.7 475 225 475C206.3 475 187.7 507 169 505C150.3 503 131.7 467 112.8 467C94 467 75 503 56.2 503C37.3 503 18.7 467 9.3 449L0 431Z" fill="#e28b1e"></path><path d="M0 601L9.3 601C18.7 601 37.3 601 56.2 601C75 601 94 601 112.8 601C131.7 601 150.3 601 169 601C187.7 601 206.3 601 225 601C243.7 601 262.3 601 281.2 601C300 601 319 601 337.8 601C356.7 601 375.3 601 394 601C412.7 601 431.3 601 450 601C468.7 601 487.3 601 506.2 601C525 601 544 601 562.8 601C581.7 601 600.3 601 619 601C637.7 601 656.3 601 675 601C693.7 601 712.3 601 731.2 601C750 601 769 601 787.8 601C806.7 601 825.3 601 844 601C862.7 601 881.3 601 890.7 601L900 601L900 569L890.7 570C881.3 571 862.7 573 844 575C825.3 577 806.7 579 787.8 578C769 577 750 573 731.2 571C712.3 569 693.7 569 675 566C656.3 563 637.7 557 619 553C600.3 549 581.7 547 562.8 552C544 557 525 569 506.2 575C487.3 581 468.7 581 450 583C431.3 585 412.7 589 394 584C375.3 579 356.7 565 337.8 565C319 565 300 579 281.2 582C262.3 585 243.7 577 225 575C206.3 573 187.7 577 169 575C150.3 573 131.7 565 112.8 567C94 569 75 581 56.2 582C37.3 583 18.7 573 9.3 568L0 563Z" fill="#e1850f"></path></svg>