<svg id="visual" viewBox="0 0 900 600" width="900" height="600" xmlns="http://www.w3.org/2000/svg" xmlns:xlink="http://www.w3.org/1999/xlink" version="1.1"><path d="M0 19L25 30C50 41 100 63 150 64C200 65 250 45 300 37C350 29 400 33 450 32C500 31 550 25 600 30C650 35 700 51 750 54C800 57 850 47 875 42L900 37L900 0L875 0C850 0 800 0 750 0C700 0 650 0 600 0C550 0 500 0 450 0C400 0 350 0 300 0C250 0 200 0 150 0C100 0 50 0 25 0L0 0Z" fill="#e5993b"></path><path d="M0 121L25 124C50 127 100 133 150 122C200 111 250 83 300 84C350 85 400 115 450 119C500 123 550 101 600 95C650 89 700 99 750 102C800 105 850 101 875 99L900 97L900 35L875 40C850 45 800 55 750 52C700 49 650 33 600 28C550 23 500 29 450 30C400 31 350 27 300 35C250 43 200 63 150 62C100 61 50 39 25 28L0 17Z" fill="#e38d23"></path><path d="M0 199L25 223C50 247 100 295 150 322C200 349 250 355 300 360C350 365 400 369 450 354C500 339 550 305 600 286C650 267 700 263 750 285C800 307 850 355 875 379L900 403L900 95L875 97C850 99 800 103 750 100C700 97 650 87 600 93C550 99 500 121 450 117C400 113 350 83 300 82C250 81 200 109 150 120C100 131 50 125 25 122L0 119Z" fill="#e1850f"></path><path d="M0 325L25 355C50 385 100 445 150 461C200 477 250 449 300 443C350 437 400 453 450 443C500 433 550 397 600 388C650 379 700 397 750 422C800 447 850 479 875 495L900 511L900 401L875 377C850 353 800 305 750 283C700 261 650 265 600 284C550 303 500 337 450 352C400 367 350 363 300 358C250 353 200 347 150 320C100 293 50 245 25 221L0 197Z" fill="#e38d23"></path><path d="M0 601L25 601C50 601 100 601 150 601C200 601 250 601 300 601C350 601 400 601 450 601C500 601 550 601 600 601C650 601 700 601 750 601C800 601 850 601 875 601L900 601L900 509L875 493C850 477 800 445 750 420C700 395 650 377 600 386C550 395 500 431 450 441C400 451 350 435 300 441C250 447 200 475 150 459C100 443 50 383 25 353L0 323Z" fill="#e5993b"></path></svg>