<svg id="visual" viewBox="0 0 200 150" width="200" height="150" xmlns="http://www.w3.org/2000/svg" xmlns:xlink="http://www.w3.org/1999/xlink" version="1.1"><rect x="0" y="0" width="200" height="150" fill="#e1850f"></rect><defs><linearGradient id="grad1_0" x1="25%" y1="100%" x2="100%" y2="0%"><stop offset="23.333333333333336%" stop-color="#e1850f" stop-opacity="1"></stop><stop offset="76.66666666666666%" stop-color="#e1850f" stop-opacity="1"></stop></linearGradient></defs><defs><linearGradient id="grad2_0" x1="0%" y1="100%" x2="75%" y2="0%"><stop offset="23.333333333333336%" stop-color="#e1850f" stop-opacity="1"></stop><stop offset="76.66666666666666%" stop-color="#e1850f" stop-opacity="1"></stop></linearGradient></defs><g transform="translate(200, 150)"><path d="M-100 0C-90.3 -7.9 -80.5 -15.8 -77 -25C-73.5 -34.3 -76.3 -44.8 -73.6 -53.5C-71 -62.1 -63 -68.8 -55.3 -76C-47.5 -83.3 -40.1 -91 -30.9 -95.1C-21.7 -99.2 -10.9 -99.6 0 -100L0 0Z" fill="#f4a541"></path></g><g transform="translate(0, 0)"><path d="M100 0C89.7 7.9 79.4 15.8 76.1 24.7C72.7 33.6 76.3 43.4 75.2 54.7C74.2 65.9 68.4 78.5 58.8 80.9C49.1 83.3 35.5 75.5 25 77C14.6 78.5 7.3 89.3 0 100L0 0Z" fill="#f4a541"></path></g></svg>