<svg id="visual" viewBox="0 0 200 150" width="200" height="150" xmlns="http://www.w3.org/2000/svg" xmlns:xlink="http://www.w3.org/1999/xlink" version="1.1"><rect x="0" y="0" width="200" height="150" fill="#e1850f"></rect><defs><linearGradient id="grad1_0" x1="25%" y1="100%" x2="100%" y2="0%"><stop offset="23.333333333333336%" stop-color="#e1850f" stop-opacity="1"></stop><stop offset="76.66666666666666%" stop-color="#e1850f" stop-opacity="1"></stop></linearGradient></defs><defs><linearGradient id="grad2_0" x1="0%" y1="100%" x2="75%" y2="0%"><stop offset="23.333333333333336%" stop-color="#e1850f" stop-opacity="1"></stop><stop offset="76.66666666666666%" stop-color="#e1850f" stop-opacity="1"></stop></linearGradient></defs><g transform="translate(200, 150)"><path d="M-81.2 0C-78.6 -7.6 -75.9 -15.3 -74.2 -24.1C-72.5 -32.9 -71.8 -43 -65.7 -47.8C-59.6 -52.6 -48.1 -52.1 -40.6 -55.8C-33 -59.5 -29.6 -67.4 -23.5 -72.3C-17.4 -77.2 -8.7 -79.2 0 -81.2L0 0Z" fill="#f4a541"></path></g><g transform="translate(0, 0)"><path d="M81.3 0C78.4 8 75.5 16 72.3 23.5C69.1 31 65.6 37.9 61.5 44.7C57.3 51.5 52.5 58.1 46.4 63.9C40.4 69.7 33.1 74.5 25.1 77.3C17.2 80 8.6 80.6 0 81.3L0 0Z" fill="#f4a541"></path></g></svg>