<svg id="visual" viewBox="0 0 200 150" width="200" height="150" xmlns="http://www.w3.org/2000/svg" xmlns:xlink="http://www.w3.org/1999/xlink" version="1.1"><rect x="0" y="0" width="200" height="150" fill="#e1850f"></rect><defs><linearGradient id="grad1_0" x1="25%" y1="0%" x2="100%" y2="100%"><stop offset="23.333333333333336%" stop-color="#e1850f" stop-opacity="1"></stop><stop offset="76.66666666666666%" stop-color="#e1850f" stop-opacity="1"></stop></linearGradient></defs><defs><linearGradient id="grad2_0" x1="0%" y1="0%" x2="75%" y2="100%"><stop offset="23.333333333333336%" stop-color="#e1850f" stop-opacity="1"></stop><stop offset="76.66666666666666%" stop-color="#e1850f" stop-opacity="1"></stop></linearGradient></defs><g transform="translate(200, 0)"><path d="M0 81.3C-8.7 80.7 -17.4 80.2 -25.1 77.3C-32.8 74.3 -39.5 68.9 -45.8 63.1C-52.2 57.3 -58.3 51.3 -60.7 44.1C-63.1 36.9 -61.9 28.5 -64.7 21C-67.5 13.5 -74.4 6.7 -81.2 0L0 0Z" fill="#f4a541"></path></g><g transform="translate(0, 150)"><path d="M0 -81.2C7.5 -77.7 15 -74.1 23.5 -72.3C32 -70.4 41.4 -70.3 47.8 -65.7C54.1 -61.2 57.3 -52.1 61.5 -44.7C65.6 -37.2 70.7 -31.3 74.2 -24.1C77.6 -16.9 79.4 -8.5 81.3 0L0 0Z" fill="#f4a541"></path></g></svg>