<svg id="visual" viewBox="0 0 200 150" width="200" height="150" xmlns="http://www.w3.org/2000/svg" xmlns:xlink="http://www.w3.org/1999/xlink" version="1.1"><rect x="0" y="0" width="200" height="150" fill="#e1850f"></rect><defs><linearGradient id="grad1_0" x1="25%" y1="100%" x2="100%" y2="0%"><stop offset="23.333333333333336%" stop-color="#e1850f" stop-opacity="1"></stop><stop offset="76.66666666666666%" stop-color="#e1850f" stop-opacity="1"></stop></linearGradient></defs><defs><linearGradient id="grad2_0" x1="0%" y1="100%" x2="75%" y2="0%"><stop offset="23.333333333333336%" stop-color="#e1850f" stop-opacity="1"></stop><stop offset="76.66666666666666%" stop-color="#e1850f" stop-opacity="1"></stop></linearGradient></defs><g transform="translate(200, 150)"><path d="M-87.5 0C-86.7 -11.8 -85.8 -23.6 -80.8 -33.5C-75.9 -43.4 -66.8 -51.3 -58 -58C-49.2 -64.7 -40.6 -70.1 -31 -74.8C-21.4 -79.5 -10.7 -83.5 0 -87.5L0 0Z" fill="#f4a541"></path></g><g transform="translate(0, 0)"><path d="M87.5 0C84.2 11.1 80.9 22.2 75.8 31.4C70.6 40.6 63.5 47.8 56.6 56.6C49.6 65.3 42.9 75.4 33.5 80.8C24.1 86.2 12 86.9 0 87.5L0 0Z" fill="#f4a541"></path></g></svg>