<svg id="visual" viewBox="0 0 200 150" width="200" height="150" xmlns="http://www.w3.org/2000/svg" xmlns:xlink="http://www.w3.org/1999/xlink" version="1.1"><rect x="0" y="0" width="200" height="150" fill="#e1850f"></rect><defs><linearGradient id="grad1_0" x1="25%" y1="0%" x2="100%" y2="100%"><stop offset="23.333333333333336%" stop-color="#e1850f" stop-opacity="1"></stop><stop offset="76.66666666666666%" stop-color="#e1850f" stop-opacity="1"></stop></linearGradient></defs><defs><linearGradient id="grad2_0" x1="0%" y1="0%" x2="75%" y2="100%"><stop offset="23.333333333333336%" stop-color="#e1850f" stop-opacity="1"></stop><stop offset="76.66666666666666%" stop-color="#e1850f" stop-opacity="1"></stop></linearGradient></defs><g transform="translate(200, 0)"><path d="M0 112.5C-16.2 113.1 -32.5 113.6 -43.1 103.9C-53.6 94.3 -58.5 74.3 -60.1 60.1C-61.7 45.9 -60.2 37.4 -68.4 28.3C-76.6 19.3 -94.5 9.6 -112.5 0L0 0Z" fill="#f4a541"></path></g><g transform="translate(0, 150)"><path d="M0 -112.5C16.1 -112.9 32.2 -113.2 43.1 -103.9C53.9 -94.6 59.6 -75.6 61.5 -61.5C63.4 -47.4 61.4 -38.1 69.3 -28.7C77.1 -19.3 94.8 -9.6 112.5 0L0 0Z" fill="#f4a541"></path></g></svg>