<svg id="visual" viewBox="0 0 200 150" width="200" height="150" xmlns="http://www.w3.org/2000/svg" xmlns:xlink="http://www.w3.org/1999/xlink" version="1.1"><rect x="0" y="0" width="200" height="150" fill="#e1850f"></rect><g transform="translate(181.52819962225652 163.65690732370675)"><path d="M76.9 -98.7C105.7 -67.6 139 -49 159.4 -15.9C179.8 17.2 187.4 64.9 166.9 92.6C146.4 120.4 98 128.3 55.3 137.8C12.5 147.2 -24.5 158.2 -51.4 146.2C-78.3 134.3 -95 99.4 -111.5 66.5C-128 33.6 -144.3 2.6 -141.8 -27.4C-139.4 -57.4 -118.2 -86.6 -91.5 -118C-64.7 -149.4 -32.4 -183.2 -4.1 -178.3C24.1 -173.4 48.2 -129.8 76.9 -98.7" fill="#e59a3a"></path></g></svg>