<svg id="visual" viewBox="0 0 200 150" width="200" height="150" xmlns="http://www.w3.org/2000/svg" xmlns:xlink="http://www.w3.org/1999/xlink" version="1.1"><rect x="0" y="0" width="200" height="150" fill="#e59a3a"></rect><g transform="translate(86.83838552724805 67.8024041993371)"><path d="M46.8 -52.7C64.7 -51.5 85.8 -43.1 93.5 -28.3C101.1 -13.5 95.3 7.8 86.6 26.2C78 44.7 66.6 60.4 51.7 70.2C36.8 80 18.4 84 5 77.1C-8.4 70.3 -16.8 52.5 -23.7 40.1C-30.5 27.6 -35.7 20.5 -44.8 10.3C-53.9 0.2 -66.9 -12.9 -70 -28.7C-73 -44.5 -66.2 -63.1 -52.9 -65.8C-39.6 -68.5 -19.8 -55.4 -2.6 -51.7C14.5 -48.1 29 -54 46.8 -52.7" fill="#e1850f"></path></g></svg>